. 
  
http://www.torrenting.com/        :     Greatest Movie Tracker on The Net!!!
 
http://www.Torrenting.com          :     Once & For all ;)


               www . Torrenting . Com 

(((((((((((((= Enjoy No RAR releases =))))))))))))))))))))


...................................NFO:....................................

.[pre]  
    *********** ****    ****      ***      ******** *********** ****    *** **********
           *+*     +*+*+* *+*+*+   *+* *+*   *+*    *+*    *+*     *+*+*   *+* *+*        
           +*+     +*+ +*+*+ +*+  +*+   +*+  +*+           +*+     *+*+*+  +*+ +*+        
           +$+     +$+  +*+  +$+ +$++*++$++* *$*           +$+     +$+ +*+ +$+ +$++*++$  
           +$+     +$+       +$+ +$+     +$+ +$+   +$+$    +$+     +$+  +$+$+$ +$+        
           $+$     $+$       $+$ $+$     $+$ $+$    $+$    $+$     $+$   $+$+$ $+$        
       $$$$$$$$$$$ $$$       $$$ $$$     $$$  $$$$$$$$ $$$$$$$$$$$ $$$    $$$$ $$$$$$$$$$     
                                                



                           Another Fine Release Brought to you from - IMAGiNE                   
                                                 

********************************************************************************************************************                                
                                 Scream 4 TS XViD - IMAGiNE
********************************************************************************************************************

[color=red][size=4]This release is an INTERNAL RELEASE ONLY... DO NOT upload this release to any other site PERIOD. 
If found that you uploaded it to another site you will be perma banned from IMAGiNE... ;) 
Internal releases stay just that folks... INTERNAL :):P[/color][/size]



Ripper ...........: IMAGiNE                                        IMDB Rating.......:7.5/10                             
Video Codec.......: XVID                                         Release Date......:16/04/11
Audio Codec.......:MP3                                           Theatre Date......:15/04/11
Audio Bitrate.....:128                                              Runtime.......:1h 39mn
Subtitles.........:NIL                                                 Language..........:ENGLISH
Resolution...... 704 x 288                                      IMDb URL..........:http://www.imdb.com/title/tt1262416/


[color=yellow]DETAILS:[/color]

Video
ID                               : 0
Format                           : MPEG-4 Visual
Format profile                   : Advanced Simple@L5
Format settings, BVOP            : 2
Format settings, QPel            : No
Format settings, GMC             : No warppoints
Format settings, Matrix          : Default (MPEG)
Muxing mode                      : Packed bitstream
Codec ID                         : XVID
Codec ID/Hint                    : XviD
Duration                         : 1h 39mn
Bit rate                         : 1 838 Kbps
Width                            : 704 pixels
Height                           : 288 pixels
Display aspect ratio             : 2.40:1
Frame rate                       : 25.000 fps
Color space                      : YUV
Chroma subsampling               : 4:2:0
Bit depth                        : 8 bits
Scan type                        : Progressive
Compression mode                 : Lossy
Bits/(Pixel*Frame)               : 0.363
Stream size                      : 1.28 GiB (93%)
Writing library                  : XviD 61

Audio
ID                               : 1
Format                           : MPEG Audio
Format version                   : Version 1
Format profile                   : Layer 3
Codec ID                         : 55
Codec ID/Hint                    : MP3
Duration                         : 1h 39mn
Bit rate mode                    : Constant
Bit rate                         : 128 Kbps
Channel(s)                       : 2 channels
Sampling rate                    : 44.1 KHz
Compression mode                 : Lossy
Stream size                      : 90.9 MiB (6%)
Alignment                        : Split accross interleaves
Interleave, duration             : 40 ms (1.00 video frame)
Interleave, preload duration     : 500 ms



[color=yellow]SOURCES:[/color]

VIDEO:
AUDIO:

[color=yellow]NOTES:[/color]

IMAGiNE bringing you another release..........Scream 4

Ok guys and gals.....we used the russian cam video,which was ok but nothing great.The colours were well 
whacked on it and soon as you got one part right,the rest looked off lol.Video seemed to be all there
which is nice.......like normal dark scenes are dark,but viewable.
Audio we just need to cut,filter,sync and then mux to our encode.....
In our opinion,this is not one for the big tvs out there....personal would watch on a 22" or below or
otherwise wait a tad longer.

Enjoy folks :)


[color=yellow]SCREENS:[/color]



[color=yellow]GREETS:[/color]

FLAWL3SS,ViSiON,Rx,ELEKTRI4KA,ADDiCTED,Autotron,CiNEDUB,CRYS,T0XiCiNK ,
And to all the other p2p grps past and present 

[COLOR=RED]Looking for these,syncers,cammers,audio,silver supplier.....Have anything to offer????......
Contact us imaginegroup@hushmail.com[/COLOR][/pre]


[color=red][size=4]This release is an INTERNAL RELEASE ONLY... DO NOT upload this release to any other site PERIOD. 
If found that you uploaded it to another site you will be perma banned from IMAGiNE... ;) 
Internal releases stay just that folks... INTERNAL :):P[/color][/size]